# xmcd
#
# Track frame offsets: 
#        150
#        18099
#        34431
#        51753
#        65397
#        82600
#        99469
#        116763
#        130539
#        147735
#        158376
#        171379
#
# Disc length: 2510 seconds
#
# Revision: 0
# Processed by: cddbd v1.5.2PL0 Copyright (c) Steve Scherf et al.
# Submitted via: ExactAudioCopy v1.3
#
DISCID=9509cc0c
DTITLE=The Cash Box Kings - The Essential Cash Box Kings
DYEAR=2015
DGENRE=Chicago Blues, Delta Blues
TTITLE0=I Ain't Gonna Be No Monkey Man
TTITLE1=Gotta Move out to the Suburbs
TTITLE2=Cash Box Boogie
TTITLE3=I'm a Real Lover
TTITLE4=Black Toppin'
TTITLE5=Run Run Run
TTITLE6=Blues Falling Down on Me
TTITLE7=Trying Really Hard (To Try and Get Along with You)
TTITLE8=Holler and Stomp
TTITLE9=Blues Come Around
TTITLE10=Off the Hook
TTITLE11=Feel Like Going Home
EXTD=
EXTT0=
EXTT1=
EXTT2=
EXTT3=
EXTT4=
EXTT5=
EXTT6=
EXTT7=
EXTT8=
EXTT9=
EXTT10=
EXTT11=
PLAYORDER=
